<?xml version="1.0" standalone="no"?>
<!DOCTYPE svg PUBLIC "-//W3C//DTD SVG 20010904//EN"
 "http://www.w3.org/TR/2001/REC-SVG-20010904/DTD/svg10.dtd">
<svg version="1.0" xmlns="http://www.w3.org/2000/svg"
 width="500.000000pt" height="500.000000pt" viewBox="0 0 500.000000 500.000000"
 preserveAspectRatio="xMidYMid meet">

<g transform="translate(0.000000,500.000000) scale(0.100000,-0.100000)"
fill="#fff" stroke="none">
<path d="M2310 4996 c0 -2 7 -20 16 -41 21 -51 13 -65 -38 -65 -29 0 -66 12
-116 36 -60 30 -75 34 -88 23 -11 -9 -13 -23 -9 -50 8 -48 -10 -59 -96 -59
-52 0 -70 5 -110 31 -56 35 -92 36 -97 1 -2 -13 4 -32 13 -42 9 -10 15 -27 13
-37 -5 -25 -102 -30 -173 -8 -29 10 -61 15 -71 13 -19 -4 -19 -8 -7 -71 5 -24
1 -29 -33 -43 -43 -18 -94 -14 -180 13 -28 9 -59 13 -68 10 -23 -9 -20 -43 6
-78 27 -37 19 -55 -38 -84 -30 -15 -59 -20 -121 -20 -101 0 -116 -10 -89 -59
10 -19 15 -39 11 -46 -12 -20 -58 -33 -140 -39 -76 -6 -80 -7 -90 -34 -9 -26
-6 -32 24 -56 l34 -28 -34 -26 c-52 -39 -119 -67 -165 -67 -25 0 -51 -7 -64
-18 -19 -16 -21 -22 -11 -40 6 -12 20 -26 31 -32 34 -18 24 -48 -28 -81 -26
-16 -66 -35 -90 -41 -68 -17 -83 -80 -22 -93 39 -8 38 -22 -4 -71 -30 -35 -59
-52 -143 -84 -13 -6 -24 -21 -28 -41 -7 -29 -4 -36 24 -59 17 -15 31 -33 31
-42 0 -18 -46 -56 -105 -85 -56 -29 -82 -59 -69 -81 6 -9 23 -18 37 -20 40 -5
50 -24 37 -72 -14 -51 -67 -111 -119 -135 -22 -9 -42 -24 -45 -32 -10 -25 12
-52 46 -55 21 -2 34 -9 36 -20 4 -19 -67 -100 -110 -126 -55 -32 -44 -82 18
-82 40 0 51 -24 33 -78 -16 -51 -43 -87 -85 -112 -32 -20 -35 -26 -32 -64 3
-38 5 -41 28 -37 83 13 88 -7 24 -107 -26 -40 -44 -79 -40 -87 4 -11 21 -15
62 -15 l57 0 -6 -47 c-3 -25 -21 -77 -40 -115 -20 -38 -34 -75 -31 -83 8 -19
35 -28 48 -15 17 17 44 11 51 -11 19 -60 -7 -174 -48 -208 -23 -18 -21 -54 4
-77 16 -15 24 -16 39 -6 28 17 37 15 55 -12 30 -46 35 -82 15 -119 -10 -18
-24 -52 -31 -76 -11 -36 -10 -44 3 -58 15 -14 19 -14 46 3 25 14 33 15 46 5
24 -20 30 -77 16 -169 -12 -79 -11 -86 6 -99 24 -18 28 -17 62 12 17 14 34 25
39 25 5 0 20 -22 33 -49 19 -42 22 -61 18 -125 -5 -76 2 -96 31 -96 8 0 25 10
38 22 30 28 50 18 77 -37 18 -39 18 -105 1 -162 -5 -15 0 -28 14 -42 28 -28
45 -26 83 9 35 34 33 33 59 20 30 -17 52 -69 59 -148 5 -44 14 -80 23 -89 20
-20 51 -9 65 22 6 14 18 25 26 25 43 0 116 -105 116 -166 0 -37 25 -74 50 -74
10 0 30 14 43 31 24 31 24 31 51 14 15 -10 40 -44 56 -75 51 -102 90 -119 111
-50 8 25 18 40 28 40 30 0 111 -81 141 -140 20 -40 38 -61 59 -70 48 -19 65
-7 57 40 -6 39 -5 40 22 40 51 0 114 -41 145 -95 28 -47 43 -64 59 -65 17 0
38 34 38 61 0 27 3 30 23 24 27 -9 127 -104 127 -123 0 -9 10 -12 28 -10 24 3
27 7 30 47 3 39 5 42 25 37 12 -3 27 -6 33 -6 7 0 39 -27 73 -60 86 -84 122
-82 125 9 l1 36 75 -3 75 -4 43 -49 c24 -27 50 -49 57 -49 20 0 35 32 35 73 0
18 2 36 6 39 10 10 108 -33 141 -63 34 -30 82 -39 84 -16 1 6 2 28 3 47 1 33
3 36 51 48 56 14 93 8 192 -29 60 -23 63 -23 80 -6 17 17 17 19 0 48 -38 68
-5 90 103 68 109 -21 140 -23 140 -5 0 9 -5 25 -12 36 -17 26 10 54 64 68 39
10 54 8 165 -24 32 -9 73 3 73 22 0 8 -10 28 -22 44 -31 43 -15 71 57 98 43
17 69 21 104 16 83 -10 125 23 84 68 -16 18 -16 20 4 40 17 16 40 22 108 29
47 4 93 13 101 19 21 18 17 46 -11 68 -34 27 -32 42 13 84 47 46 98 68 160 68
53 0 72 12 72 47 0 16 -10 30 -30 41 -16 9 -30 21 -30 25 0 20 59 65 105 81
110 38 118 49 80 94 -47 55 -34 77 80 139 56 31 71 44 73 64 2 21 -3 29 -27
39 -35 14 -37 20 -17 58 22 42 66 79 134 112 79 38 83 62 17 90 -25 11 -45 23
-45 27 0 19 40 64 98 113 34 28 62 58 62 65 0 20 -22 33 -60 37 -35 3 -35 3
-32 48 4 72 19 103 77 160 61 61 71 95 31 106 -14 3 -30 3 -36 -1 -14 -9 -24
19 -16 49 8 33 87 136 103 136 10 0 13 9 11 28 -3 24 -8 27 -43 30 -58 5 -65
24 -44 121 7 34 24 67 50 98 21 26 38 52 36 58 -2 5 -24 10 -48 10 -68 1 -73
7 -66 87 4 47 14 84 31 115 30 52 32 66 12 82 -10 9 -20 9 -40 0 -22 -10 -29
-10 -42 3 -41 40 -36 151 10 216 14 21 26 50 26 65 0 23 -4 27 -28 27 -15 0
-38 -7 -51 -16 -41 -29 -48 -5 -28 93 21 101 16 114 -39 94 -32 -11 -37 -11
-49 6 -31 41 -37 95 -20 170 22 99 -3 145 -50 93 -26 -29 -44 -25 -61 15 -11
28 -12 44 -4 73 31 112 -14 170 -81 106 l-27 -25 -21 30 c-37 51 -51 98 -51
165 0 35 -3 71 -6 80 -8 22 -36 20 -67 -4 -51 -40 -77 -17 -77 71 0 38 -7 64
-25 96 -36 60 -57 57 -80 -11 -5 -16 -15 -31 -22 -33 -17 -6 -98 71 -117 111
-9 19 -16 50 -16 69 0 40 -33 87 -61 87 -13 0 -24 -10 -30 -30 -14 -39 -40
-39 -89 0 -29 23 -43 44 -55 85 -16 58 -41 81 -75 70 -13 -4 -20 -15 -20 -31
0 -57 -81 -14 -136 72 -38 60 -75 89 -100 80 -11 -4 -14 -14 -9 -34 18 -82
-99 -50 -190 51 -46 52 -56 59 -69 48 -9 -8 -16 -29 -16 -47 0 -26 -4 -34 -18
-34 -33 0 -100 45 -134 90 -24 31 -42 46 -62 48 -28 3 -28 3 -22 -34 l7 -37
-53 5 c-49 5 -56 9 -103 62 -41 46 -56 56 -82 56 -31 0 -31 0 -21 -36 14 -53
-8 -74 -79 -74 -52 0 -57 2 -112 55 -45 43 -65 55 -89 55 -18 0 -32 -2 -32 -4z
m62 -230 c56 -11 74 -10 108 1 30 10 66 13 124 9 44 -4 113 -8 151 -9 55 -3
83 -10 132 -35 52 -27 73 -32 126 -31 63 1 90 -7 180 -57 24 -14 36 -14 72 -4
38 11 48 9 89 -9 26 -11 65 -34 89 -50 23 -17 64 -35 90 -41 50 -11 135 -61
199 -117 20 -18 54 -41 75 -52 21 -11 61 -44 90 -74 37 -39 64 -57 96 -67 54
-15 78 -38 115 -111 23 -46 33 -56 72 -69 40 -14 49 -22 80 -83 20 -38 53 -82
76 -101 22 -19 49 -54 59 -78 11 -23 31 -57 46 -75 18 -21 29 -49 34 -85 6
-42 15 -60 40 -83 42 -40 50 -57 69 -138 16 -67 57 -160 76 -172 5 -3 10 -35
10 -71 0 -52 6 -76 30 -125 32 -62 34 -78 24 -166 -5 -45 -1 -62 27 -123 32
-70 32 -72 20 -135 -11 -56 -11 -70 3 -107 15 -40 15 -47 0 -98 -12 -38 -17
-83 -15 -148 2 -88 1 -96 -29 -149 -29 -52 -32 -61 -24 -107 14 -96 9 -129
-31 -194 -32 -53 -36 -66 -30 -101 8 -47 0 -63 -60 -131 -36 -41 -45 -58 -45
-88 0 -69 -18 -110 -61 -139 -46 -31 -75 -73 -84 -128 -12 -64 -32 -94 -91
-131 -47 -30 -60 -45 -84 -98 -24 -55 -34 -67 -85 -95 -47 -27 -60 -40 -80
-84 -32 -72 -72 -117 -104 -117 -46 -1 -108 -36 -134 -77 -13 -21 -31 -43 -38
-50 -18 -14 -135 -59 -176 -68 -18 -3 -51 -24 -75 -47 -55 -51 -94 -68 -158
-68 -59 0 -102 -16 -149 -55 -26 -22 -49 -31 -98 -37 -36 -4 -89 -19 -119 -34
-47 -23 -62 -26 -117 -20 -34 3 -66 6 -72 7 -5 0 -36 -8 -67 -17 -51 -15 -66
-16 -125 -4 -59 11 -75 10 -122 -4 -68 -20 -126 -20 -180 -2 -22 9 -72 14
-110 14 -62 -1 -73 1 -108 28 -34 26 -48 29 -133 34 -84 5 -100 9 -139 35 -38
25 -57 31 -126 35 -70 5 -86 10 -125 38 -106 76 -121 85 -152 84 -25 -1 -46
11 -96 54 -35 30 -72 54 -83 54 -39 0 -89 29 -100 57 -15 40 -37 61 -71 69
-34 7 -121 90 -153 144 -12 21 -41 46 -70 62 -61 33 -105 82 -105 118 0 33
-31 75 -71 95 -16 9 -39 34 -50 58 -12 23 -41 64 -65 92 -24 27 -44 58 -44 68
0 29 -37 93 -66 114 -34 25 -64 117 -64 199 0 49 -4 65 -21 80 -12 10 -30 36
-41 58 -19 38 -21 57 -17 146 1 31 -5 59 -21 90 -18 33 -26 70 -31 140 -4 52
-11 113 -16 135 -5 24 -4 59 1 87 8 39 7 54 -7 83 -21 44 -22 104 -2 170 13
41 13 59 4 102 -10 45 -9 59 6 98 9 25 27 55 39 66 18 17 21 32 22 95 2 70 4
80 39 130 33 48 37 59 32 97 -9 66 6 111 57 168 38 42 46 58 46 89 0 54 15 89
59 135 56 59 71 85 71 126 0 42 45 108 104 153 55 41 72 63 84 104 14 47 58
89 124 122 53 26 59 33 74 85 8 25 24 37 98 74 61 30 93 52 105 72 18 33 115
85 174 94 25 4 54 21 86 49 58 51 108 71 161 62 35 -5 43 -2 83 33 36 30 59
41 111 51 36 7 73 10 81 6 19 -7 60 8 106 40 29 20 53 26 125 31 48 3 99 12
113 20 32 16 48 16 133 -1z"/>
<path d="M2526 4518 c-5 -13 -53 -305 -77 -461 -14 -91 -11 -97 59 -97 38 0
42 2 42 26 0 43 23 164 31 164 11 0 56 -98 70 -152 11 -45 13 -47 57 -57 26
-5 50 -7 55 -4 14 8 2 61 -34 153 -22 56 -29 85 -22 87 53 18 103 99 103 165
0 86 -53 135 -174 163 -39 9 -79 19 -89 22 -9 2 -19 -2 -21 -9z m157 -136 c28
-25 22 -76 -14 -106 -33 -28 -79 -35 -79 -11 0 15 18 111 26 133 5 16 40 7 67
-16z"/>
<path d="M1999 4466 c-178 -48 -236 -285 -113 -459 46 -65 125 -101 203 -94
71 6 126 33 173 85 45 49 62 100 62 177 -1 195 -160 337 -325 291z m120 -111
c38 -19 77 -66 91 -111 15 -44 7 -127 -15 -161 -24 -36 -75 -63 -120 -63 -67
0 -116 44 -140 127 -43 143 68 269 184 208z"/>
<path d="M3110 4303 c-80 -85 -300 -350 -308 -371 -1 -4 19 -14 45 -21 l48
-12 31 35 c35 41 42 42 108 20 l48 -17 -4 -54 -5 -55 44 -21 c27 -13 46 -17
52 -11 15 14 52 604 38 604 -3 0 -47 -44 -97 -97z m-6 -200 c-3 -32 -7 -59 -9
-61 -3 -4 -65 20 -65 25 0 8 70 93 76 93 3 0 2 -26 -2 -57z"/>
<path d="M1383 4179 c-18 -12 -33 -23 -33 -26 0 -10 279 -403 310 -437 5 -5
60 22 124 60 l115 68 -19 31 c-32 51 -41 52 -114 11 -37 -21 -69 -36 -70 -34
-2 1 -40 55 -86 118 -120 166 -171 230 -184 230 -6 0 -26 -10 -43 -21z"/>
<path d="M3479 4031 c-214 -195 -273 -256 -265 -270 4 -6 21 -18 38 -27 34
-17 30 -20 130 75 26 25 50 43 52 40 3 -2 1 -22 -3 -44 -17 -80 -20 -125 -7
-125 7 0 50 11 96 24 47 14 86 23 88 22 1 -2 -24 -38 -58 -80 -33 -41 -60 -80
-60 -85 0 -14 69 -63 80 -56 8 5 191 295 289 457 l22 38 -172 -85 c-95 -46
-175 -83 -176 -81 -2 2 25 82 61 177 36 96 63 175 62 176 -2 2 -81 -68 -177
-156z"/>
<path d="M1134 3978 l-38 -36 189 -193 c103 -107 193 -196 198 -198 12 -5 67
50 67 67 0 8 -85 100 -188 205 l-189 190 -39 -35z"/>
<path d="M2445 3720 c-43 -18 -872 -548 -902 -577 -30 -29 -33 -37 -33 -92 0
-48 4 -65 23 -87 l24 -27 69 41 69 42 3 -212 2 -211 -70 -68 c-137 -133 -192
-257 -191 -434 0 -130 40 -219 120 -269 44 -28 219 -94 573 -216 423 -147 524
-167 679 -136 160 33 396 144 614 289 120 80 151 104 145 110 -3 3 -68 10
-144 16 -77 6 -141 13 -144 15 -2 3 27 42 65 88 132 157 174 239 175 335 1 96
-67 162 -184 178 l-48 7 0 254 c0 140 3 254 6 254 4 0 35 -18 70 -40 35 -22
68 -40 73 -40 18 0 43 62 45 110 2 71 -16 94 -138 169 -61 38 -268 168 -460
290 -364 230 -379 237 -441 211z m177 -268 c62 -37 211 -130 331 -206 l217
-139 0 -293 0 -294 -34 0 c-19 0 -47 5 -61 10 l-27 10 5 228 c3 125 3 248 0
275 l-5 47 -559 0 -559 0 0 -165 0 -165 130 0 130 0 0 -39 c0 -22 -3 -42 -7
-44 -5 -2 -53 2 -108 10 -94 14 -146 12 -235 -9 -13 -3 -15 27 -18 212 l-2
215 242 153 c134 83 281 176 328 206 47 30 93 55 102 55 10 1 68 -30 130 -67z
m-442 -532 l0 -80 -90 0 -90 0 0 73 c0 41 3 77 7 80 3 4 44 7 90 7 l83 0 0
-80z m270 0 l0 -81 -92 3 -93 3 -3 64 c-2 35 -1 70 2 77 4 10 29 14 96 14 l90
0 0 -80z m268 -2 l3 -78 -96 0 -95 0 0 80 0 81 93 -3 92 -3 3 -77z m257 2 l0
-75 -87 -3 -88 -3 0 81 0 81 88 -3 87 -3 0 -75z m-525 -231 c0 -62 -2 -70 -17
-65 -10 2 -51 10 -91 17 -40 7 -75 16 -78 21 -3 4 -2 28 2 53 l6 45 89 0 89 0
0 -71z m270 -23 l0 -93 -92 16 -93 16 -3 78 -3 77 96 0 95 0 0 -94z m250 -17
l0 -111 -27 6 c-16 3 -53 8 -85 12 -46 5 -57 10 -62 28 -8 29 -7 161 1 169 3
4 44 7 90 7 l83 0 0 -111z m-675 -52 c417 -83 648 -116 885 -126 186 -9 235
-22 264 -72 47 -80 6 -208 -111 -342 -152 -173 -350 -290 -580 -342 -113 -26
-153 -45 -153 -74 0 -117 387 -1 593 178 32 28 33 28 140 23 59 -2 107 -7 107
-11 0 -18 -354 -209 -485 -262 -150 -60 -293 -71 -374 -29 -110 56 -168 223
-126 365 56 196 186 317 450 422 80 31 21 20 -100 -19 -114 -37 -208 -92 -293
-173 -80 -75 -128 -152 -153 -243 -23 -81 -24 -132 -3 -201 8 -29 13 -55 11
-57 -8 -8 -35 43 -51 96 -27 91 -21 196 23 373 5 20 7 37 4 37 -10 0 -74 -153
-88 -212 -17 -72 -20 -194 -5 -232 12 -33 1 -33 -51 -4 -42 23 -49 41 -22 56
34 20 1 40 -144 90 -81 27 -178 62 -215 76 -38 14 -68 22 -68 19 0 -9 51 -75
70 -91 13 -11 11 -12 -10 -6 -73 20 -116 94 -126 217 -8 87 14 209 52 295 l25
56 -25 -23 c-39 -37 -96 -154 -112 -233 -17 -79 -13 -160 11 -228 8 -22 10
-40 6 -40 -21 0 -72 75 -87 127 -33 112 4 290 83 410 45 68 182 196 224 211
61 20 239 7 434 -31z"/>
<path d="M2470 3373 c-54 -20 -81 -83 -56 -132 32 -61 107 -71 150 -20 45 53
31 119 -29 145 -37 15 -42 15 -65 7z"/>
<path d="M1873 2447 c-17 -23 -41 -58 -52 -78 l-21 -36 115 -27 c63 -15 120
-26 125 -24 6 2 39 39 74 83 46 57 60 82 51 87 -16 10 -191 38 -230 38 -23 -1
-37 -10 -62 -43z"/>
<path d="M2279 2383 c-41 -45 -109 -135 -109 -144 0 -5 9 -9 20 -9 11 0 63
-11 117 -25 54 -14 105 -25 113 -24 8 0 34 24 57 53 23 29 62 67 87 83 l45 30
-52 11 c-29 6 -94 20 -146 32 -52 11 -97 20 -101 20 -3 0 -18 -12 -31 -27z"/>
<path d="M3212 2299 c-102 -16 -290 -77 -407 -133 -170 -82 -258 -175 -286
-304 -12 -58 1 -145 26 -178 14 -18 16 -18 45 14 16 18 30 43 30 56 0 43 59
143 116 195 107 98 281 201 432 255 103 37 116 33 62 -15 -81 -73 -183 -140
-305 -201 -120 -60 -192 -116 -221 -170 -8 -15 -11 -29 -6 -31 15 -10 160 34
239 72 192 92 387 257 438 372 17 36 17 41 3 56 -20 19 -85 24 -166 12z"/>
<path d="M1750 2142 c0 -11 419 -136 427 -128 4 3 4 9 1 12 -7 7 -398 124
-415 124 -7 0 -13 -4 -13 -8z"/>
<path d="M1742 2085 c5 -6 423 -135 435 -135 4 0 2 5 -3 10 -10 10 -405 130
-427 130 -6 0 -8 -2 -5 -5z"/>
<path d="M1745 2042 c13 -13 415 -145 422 -139 9 9 -31 25 -212 81 -231 73
-222 70 -210 58z"/>
<path d="M924 3671 c-30 -14 -51 -35 -81 -82 -73 -117 -79 -99 54 -178 65 -38
167 -101 228 -140 l110 -71 22 38 c13 20 23 42 23 48 0 6 -36 35 -80 64 -44
29 -80 54 -80 57 0 2 11 30 25 63 31 74 31 83 0 136 -44 75 -137 103 -221 65z
m120 -111 c17 -17 18 -23 7 -60 -6 -22 -16 -40 -21 -40 -5 0 -32 14 -60 31
-52 32 -53 36 -16 77 23 26 58 23 90 -8z"/>
<path d="M3883 3536 c-155 -28 -285 -54 -289 -59 -4 -4 9 -25 30 -46 34 -34
42 -38 75 -34 33 5 40 1 79 -41 23 -25 42 -50 42 -55 0 -5 -16 -23 -36 -39
l-37 -30 29 -41 c16 -22 32 -41 36 -41 7 0 146 158 273 310 43 52 85 103 93
113 19 22 40 25 -295 -37z m67 -80 c0 -3 -13 -19 -30 -37 l-30 -33 -25 24
c-30 28 -27 32 28 41 23 3 45 7 50 8 4 0 7 -1 7 -3z"/>
<path d="M665 3051 c-101 -47 -175 -153 -175 -251 0 -19 -7 -30 -25 -38 -45
-21 -28 -32 48 -32 69 0 78 3 136 40 70 45 115 108 125 173 5 29 17 54 42 79
19 21 32 42 29 48 -13 22 -118 11 -180 -19z m46 -47 c-70 -35 -89 -53 -158
-156 -15 -21 -23 -27 -23 -16 0 9 19 45 43 79 32 47 56 70 102 95 33 19 71 34
84 34 16 0 1 -12 -48 -36z m-57 -128 c-38 -42 -72 -76 -77 -76 -11 0 66 97
106 132 56 50 40 20 -29 -56z m56 -5 c-18 -36 -75 -91 -94 -91 -4 0 19 29 51
65 32 36 59 65 61 65 1 0 -7 -18 -18 -39z"/>
<path d="M4167 3072 c-16 -7 -15 -11 13 -37 20 -19 37 -51 50 -95 22 -75 52
-120 108 -161 47 -35 144 -61 190 -53 l34 7 -25 21 c-18 15 -26 34 -30 71 -12
106 -63 180 -155 222 -55 26 -153 39 -185 25z m161 -96 c38 -37 80 -88 96
-118 25 -49 26 -51 4 -26 -13 14 -39 49 -58 78 -19 28 -59 69 -89 91 -30 21
-47 39 -38 39 9 0 47 -29 85 -64z m44 19 c46 -34 108 -124 107 -155 0 -8 -10
3 -22 25 -12 22 -51 68 -87 103 -71 69 -70 80 2 27z m5 -167 c52 -55 45 -62
-15 -18 -26 19 -51 50 -67 82 l-26 53 32 -35 c17 -19 52 -56 76 -82z"/>
<path d="M927 2843 c-4 -3 -7 -15 -7 -25 0 -17 14 -18 244 -18 254 0 256 0
256 41 0 10 -483 13 -493 2z"/>
<path d="M3574 2836 c-3 -8 -3 -19 0 -25 4 -5 110 -10 257 -10 l251 -2 -4 23
-3 23 -248 3 c-210 2 -248 0 -253 -12z"/>
<path d="M4305 2601 c-3 -5 -1 -12 5 -16 5 -3 10 1 10 9 0 18 -6 21 -15 7z"/>
<path d="M1088 2589 c-11 -6 -18 -22 -18 -38 0 -23 7 -31 43 -46 l42 -19 -48
-4 c-53 -3 -59 -20 -14 -36 44 -16 81 3 85 42 3 29 -1 34 -35 50 l-38 17 33 3
c18 2 32 9 32 17 0 24 -50 33 -82 14z"/>
<path d="M1215 2590 c-10 -16 4 -30 31 -30 23 0 24 -3 24 -55 0 -48 2 -55 20
-55 18 0 20 7 20 54 0 46 3 54 21 59 12 3 19 12 17 19 -6 16 -123 24 -133 8z"/>
<path d="M3584 2543 c10 -83 14 -93 41 -93 18 0 25 7 30 30 10 43 22 45 35 5
9 -27 17 -35 35 -35 25 0 30 9 40 75 4 22 9 48 12 58 3 11 -1 17 -11 17 -10 0
-20 -16 -27 -45 -13 -52 -20 -51 -39 4 -7 23 -18 41 -25 41 -6 0 -18 -21 -27
-47 l-15 -48 -13 48 c-8 29 -18 47 -27 47 -13 0 -14 -10 -9 -57z"/>
<path d="M3844 2590 c-47 -19 -40 -58 14 -85 32 -17 34 -19 15 -23 -12 -2 -31
1 -41 7 -19 10 -32 6 -32 -11 0 -14 70 -39 91 -33 24 8 41 38 33 60 -4 8 -20
23 -36 31 -34 18 -28 34 13 34 31 0 39 14 13 24 -21 8 -44 7 -70 -4z"/>
<path d="M3991 2538 c-12 -34 -21 -67 -21 -72 0 -7 26 -11 65 -11 36 0 65 3
65 7 0 4 -12 37 -27 73 -35 86 -54 87 -82 3z m49 -28 c0 -11 -4 -20 -10 -20
-5 0 -10 9 -10 20 0 11 5 20 10 20 6 0 10 -9 10 -20z"/>
<path d="M4380 2585 c-16 -20 -6 -43 25 -57 37 -17 28 -44 -13 -40 -34 3 -41
-8 -17 -28 19 -16 72 -4 85 20 17 32 11 50 -22 70 l-33 20 38 0 c26 0 37 4 37
15 0 21 -83 21 -100 0z"/>
<path d="M558 2523 c-21 -58 -23 -69 -11 -76 10 -6 19 -2 29 12 19 26 35 26
64 1 48 -42 56 -20 23 64 -23 59 -29 66 -53 66 -24 0 -30 -7 -52 -67z m62 1
c0 -8 -7 -14 -15 -14 -17 0 -18 2 -9 24 7 18 24 12 24 -10z"/>
<path d="M747 2583 c-4 -3 -7 -37 -7 -75 0 -66 1 -68 25 -68 18 0 25 5 25 19
0 12 10 21 28 26 56 14 79 57 46 89 -16 16 -104 23 -117 9z m83 -43 c0 -13 -7
-20 -20 -20 -13 0 -20 7 -20 20 0 13 7 20 20 20 13 0 20 -7 20 -20z"/>
<path d="M920 2521 c0 -77 3 -80 68 -73 50 5 52 25 4 30 -37 4 -43 19 -10 24
34 5 37 38 4 38 -14 0 -26 5 -26 10 0 6 14 10 30 10 20 0 30 5 30 15 0 11 -12
15 -50 15 l-50 0 0 -69z"/>
<path d="M4140 2521 c0 -63 2 -71 19 -71 11 0 21 6 24 13 3 10 9 10 26 0 11
-7 28 -13 38 -13 14 0 13 4 -7 25 -22 24 -23 26 -6 44 10 11 16 30 14 43 -3
20 -9 23 -55 26 l-53 3 0 -70z m78 27 c-7 -19 -38 -22 -38 -4 0 10 9 16 21 16
12 0 19 -5 17 -12z"/>
<path d="M4463 2325 c-127 -39 -216 -136 -238 -258 -5 -25 -17 -45 -36 -59
-15 -12 -31 -28 -34 -36 -8 -22 137 -6 200 22 89 41 130 99 155 220 8 40 20
66 38 83 22 20 24 26 12 33 -20 13 -46 11 -97 -5z m-103 -130 c-35 -35 -66
-63 -68 -60 -7 6 35 60 73 94 64 56 61 32 -5 -34z m106 38 c-8 -16 -50 -62
-93 -103 -108 -105 -139 -127 -69 -50 67 73 170 179 174 180 1 0 -4 -12 -12
-27z m-31 -122 c-17 -34 -88 -91 -113 -91 -8 0 8 18 35 40 28 22 58 51 68 66
23 35 31 24 10 -15z"/>
<path d="M451 2304 c18 -20 32 -53 43 -103 21 -96 66 -165 126 -196 48 -24
132 -45 180 -45 37 0 40 23 5 46 -17 11 -26 28 -31 62 -20 139 -140 249 -284
260 l-65 5 26 -29z m135 -91 c40 -36 148 -162 143 -167 -2 -2 -51 46 -109 107
-95 100 -113 132 -34 60z m62 10 c28 -21 69 -80 60 -87 -2 -2 -30 26 -63 62
-60 66 -59 71 3 25z m-79 -82 c17 -28 55 -67 84 -87 72 -52 78 -58 34 -40 -59
24 -97 55 -128 104 -25 40 -37 72 -26 72 2 0 18 -22 36 -49z"/>
<path d="M927 2196 c-3 -8 1 -17 9 -20 9 -3 99 -6 200 -6 177 0 184 1 184 20
0 19 -7 20 -194 20 -158 0 -195 -3 -199 -14z"/>
<path d="M3606 2194 c-3 -9 -6 -18 -6 -20 0 -2 108 -4 240 -4 233 0 240 1 240
20 0 19 -7 20 -234 20 -204 0 -235 -2 -240 -16z"/>
<path d="M1019 1849 c-5 -22 -11 -98 -12 -159 -2 -105 16 -138 110 -202 41
-27 73 -52 70 -54 -3 -3 -62 18 -133 47 -120 48 -132 51 -193 46 -37 -2 -81
-11 -99 -18 l-33 -14 63 -45 c61 -43 66 -45 133 -44 39 0 104 4 145 8 68 8 83
6 153 -19 43 -15 80 -25 82 -23 3 2 -27 29 -66 58 -84 66 -103 99 -118 208
-12 95 -36 156 -75 191 -14 14 -26 23 -27 20z"/>
<path d="M3793 1763 c-140 -49 -213 -241 -147 -383 70 -153 231 -216 363 -144
63 34 116 102 131 170 6 27 18 59 26 71 7 12 14 25 14 28 0 9 -116 63 -174 80
-66 19 -76 14 -76 -42 0 -29 4 -33 53 -48 28 -10 56 -21 61 -26 13 -12 -35
-100 -67 -123 -42 -30 -131 -29 -175 2 -66 47 -92 153 -56 228 9 19 32 47 50
64 30 26 42 30 94 30 56 0 60 2 75 30 20 39 19 57 -4 70 -28 14 -119 11 -168
-7z"/>
<path d="M1227 1753 c-9 -16 -19 -193 -12 -230 3 -22 17 -52 31 -69 l24 -29
35 39 c27 30 35 48 35 78 0 46 -30 127 -66 179 -26 38 -38 46 -47 32z"/>
<path d="M1487 1428 c-57 -70 -317 -437 -317 -447 0 -13 69 -63 79 -56 5 3 71
92 147 198 76 105 153 212 171 236 18 24 33 47 33 50 0 3 -18 18 -39 34 l-39
27 -35 -42z"/>
<path d="M3368 1399 c-21 -11 -38 -23 -38 -27 0 -4 43 -79 95 -166 52 -87 95
-160 95 -162 0 -10 -204 100 -289 155 -51 34 -95 61 -96 59 -13 -13 187 -473
241 -556 l15 -22 42 21 c23 12 43 23 45 24 2 2 -25 59 -60 128 -34 70 -60 129
-57 132 3 3 40 -10 81 -30 76 -34 194 -76 257 -90 l34 -7 -86 166 c-96 184
-217 388 -232 392 -5 2 -27 -6 -47 -17z"/>
<path d="M1058 1346 c-59 -21 -158 -95 -158 -118 0 -6 36 -9 93 -6 93 3 94 3
179 56 47 28 91 52 97 52 6 0 11 4 11 9 0 8 -96 21 -154 21 -17 -1 -48 -7 -68
-14z"/>
<path d="M1651 1307 c-57 -140 -119 -401 -128 -541 l-6 -89 49 33 c27 18 73
56 102 84 l52 50 0 -71 c0 -58 5 -80 28 -124 15 -29 32 -54 37 -56 10 -3 97
143 246 411 60 108 79 150 69 156 -19 12 -90 34 -93 29 -2 -2 -48 -89 -102
-192 -54 -103 -100 -186 -102 -183 -3 2 2 49 11 104 28 173 22 177 -84 66 -39
-42 -74 -73 -77 -71 -11 12 62 261 112 379 5 13 -4 22 -43 42 l-50 25 -21 -52z"/>
<path d="M2952 1178 c-33 -7 -42 -13 -38 -26 28 -89 60 -312 54 -370 -3 -33
-5 -31 -61 62 -39 64 -65 96 -77 96 -21 0 -25 -13 -41 -140 l-12 -95 -15 35
c-17 43 -92 337 -92 363 0 17 -5 18 -52 12 -29 -4 -55 -9 -57 -11 -3 -2 4 -39
14 -82 53 -230 177 -549 209 -539 21 6 67 114 73 171 3 31 9 59 14 61 4 3 17
-10 28 -29 12 -19 54 -64 93 -102 l72 -67 8 29 c9 33 -7 384 -22 482 -16 107
-31 162 -43 161 -7 -1 -31 -5 -55 -11z"/>
<path d="M2185 1119 c-5 -23 -70 -459 -82 -550 l-5 -45 133 -21 c74 -12 137
-18 141 -15 3 4 9 28 13 53 l7 47 -41 6 c-23 3 -59 9 -81 12 -22 3 -42 10 -45
15 -3 4 11 119 32 253 20 135 35 247 33 250 -3 2 -26 7 -52 11 -44 7 -47 6
-53 -16z"/>
</g>
</svg>
